<svg width="76" height="76" viewBox="0 0 76 76" fill="none" xmlns="http://www.w3.org/2000/svg">
<path d="M38 7.125C20.9 7.125 7.125 20.9 7.125 38C7.125 55.1 20.9 68.875 38 68.875C55.1 68.875 68.875 55.1 68.875 38C68.875 34.675 68.4285 31.3643 67.241 28.2768L63.384 32.0625C63.859 33.9625 64.1274 35.8625 64.1274 38C64.1274 52.4875 52.4899 64.125 38.0024 64.125C23.5149 64.125 11.875 52.4875 11.875 38C11.875 23.5125 23.5125 11.875 38 11.875C45.125 11.875 51.5232 14.7107 56.0357 19.2232L59.375 15.884C53.9125 10.4215 46.3125 7.125 38 7.125ZM64.79 17.29L38 44.0871L27.835 33.9221L24.415 37.335L36.29 49.21L38 50.8393L39.71 49.2076L68.21 20.7076L64.79 17.2876V17.29Z" fill="#42A7C5"/>
</svg>
